<?xml version="1.0" standalone="no"?>
<!DOCTYPE svg PUBLIC "-//W3C//DTD SVG 20010904//EN"
 "http://www.w3.org/TR/2001/REC-SVG-20010904/DTD/svg10.dtd">
<svg version="1.0" xmlns="http://www.w3.org/2000/svg"
 width="561.000000pt" height="561.000000pt" viewBox="0 0 561.000000 561.000000"
 preserveAspectRatio="xMidYMid meet">
<metadata>
Created by potrace 1.14, written by Peter Selinger 2001-2017
</metadata>
<g transform="translate(0.000000,561.000000) scale(0.100000,-0.100000)"
fill="#000000" stroke="none">
<path d="M1107 3933 c-3 -313 -3 -1078 0 -1701 l6 -1132 119 0 118 0 0 1189
c0 1118 1 1190 18 1209 27 33 67 38 89 13 10 -12 286 -554 613 -1204 327 -650
599 -1188 603 -1195 12 -17 260 -17 274 0 6 7 169 330 364 718 424 847 568
1124 613 1188 41 57 77 129 145 287 53 125 109 211 151 232 51 26 52 17 49
-437 -2 -228 -3 -772 -1 -1207 l2 -793 118 0 119 0 6 637 c9 810 9 1501 0
2206 l-6 557 -1697 0 -1697 0 -6 -567z m1511 317 l72 0 -1 -1262 c0 -695 -4
-1281 -8 -1303 -7 -39 -22 -11 -633 1216 -481 965 -625 1262 -621 1281 3 15
15 36 27 47 21 20 33 21 462 24 241 2 482 2 534 0 52 -1 128 -3 168 -3z m1217
-13 c12 -7 73 -12 155 -12 143 0 173 -8 187 -50 11 -31 4 -54 -40 -140 -45
-88 -102 -178 -191 -300 -72 -97 -103 -165 -146 -315 -45 -155 -74 -219 -492
-1052 l-363 -723 -6 50 c-4 28 -8 613 -8 1302 l-1 1252 43 4 c89 10 842 -5
862 -16z"/>
</g>
</svg>
